<svg width="221" height="92" viewBox="0 0 221 92" fill="none" xmlns="http://www.w3.org/2000/svg">
<path d="M157.555 38.6916C157.555 39.7241 157.221 40.7144 156.625 41.4446C156.029 42.1747 155.221 42.5849 154.379 42.5849C153.537 42.5849 152.729 42.1747 152.133 41.4446C151.537 40.7144 151.203 39.7241 151.203 38.6916C151.203 37.659 151.537 36.6687 152.133 35.9386C152.729 35.2084 153.537 34.7982 154.379 34.7982C155.221 34.7982 156.029 35.2084 156.625 35.9386C157.221 36.6687 157.555 37.659 157.555 38.6916Z" fill="#82D0C8"/>
<path d="M221 89.5548C221 89.9232 220.88 90.2765 220.668 90.5369C220.455 90.7974 220.167 90.9438 219.867 90.9438C219.566 90.9438 219.278 90.7974 219.065 90.5369C218.853 90.2765 218.733 89.9232 218.733 89.5548C218.733 89.1864 218.853 88.8331 219.065 88.5727C219.278 88.3122 219.566 88.1658 219.867 88.1658C220.167 88.1658 220.455 88.3122 220.668 88.5727C220.88 88.8331 221 89.1864 221 89.5548Z" fill="#82D0C8"/>
<path d="M2.4228 38.6917C2.4228 39.0855 2.29517 39.4632 2.06799 39.7417C1.84081 40.0201 1.53268 40.1766 1.2114 40.1766C0.890116 40.1766 0.581992 40.0201 0.35481 39.7417C0.127629 39.4632 0 39.0855 0 38.6917C0 38.2979 0.127629 37.9202 0.35481 37.6418C0.581992 37.3633 0.890116 37.2068 1.2114 37.2068C1.53268 37.2068 1.84081 37.3633 2.06799 37.6418C2.29517 37.9202 2.4228 38.2979 2.4228 38.6917Z" fill="#82D0C8"/>
<path d="M192.749 4.78276C192.749 5.41084 192.648 6.03277 192.452 6.61304C192.256 7.19331 191.969 7.72056 191.606 8.16467C191.244 8.6088 190.814 8.96109 190.34 9.20145C189.867 9.4418 189.36 9.56551 188.847 9.56551C188.335 9.56551 187.827 9.4418 187.354 9.20145C186.881 8.96109 186.45 8.6088 186.088 8.16467C185.726 7.72056 185.438 7.19331 185.242 6.61304C185.046 6.03277 184.945 5.41084 184.945 4.78276C184.945 4.15468 185.046 3.53275 185.242 2.95247C185.438 2.3722 185.726 1.84496 186.088 1.40084C186.45 0.956717 186.881 0.604421 187.354 0.364065C187.827 0.123709 188.335 0 188.847 0C189.36 0 189.867 0.123709 190.34 0.364065C190.814 0.604421 191.244 0.956717 191.606 1.40084C191.969 1.84496 192.256 2.3722 192.452 2.95247C192.648 3.53275 192.749 4.15468 192.749 4.78276Z" fill="#82D0C8"/>
<path d="M151.91 89.5549C151.91 90.129 151.724 90.6796 151.393 91.0855C151.062 91.4914 150.613 91.7195 150.145 91.7195C149.676 91.7195 149.227 91.4914 148.896 91.0855C148.565 90.6796 148.379 90.129 148.379 89.5549C148.379 88.9809 148.565 88.4303 148.896 88.0244C149.227 87.6185 149.676 87.3904 150.145 87.3904C150.613 87.3904 151.062 87.6185 151.393 88.0244C151.724 88.4303 151.91 88.9809 151.91 89.5549Z" fill="#82D0C8"/>
</svg>
