<svg width="265" height="77" viewBox="0 0 265 77" fill="none" xmlns="http://www.w3.org/2000/svg">
<path d="M23.2414 54.564C23.2414 54.904 23.1312 55.2302 22.935 55.4706C22.7389 55.7111 22.4728 55.8462 22.1953 55.8462C21.9179 55.8462 21.6518 55.7111 21.4557 55.4706C21.2595 55.2302 21.1493 54.904 21.1493 54.564C21.1493 54.2239 21.2595 53.8978 21.4557 53.6573C21.6518 53.4168 21.9179 53.2817 22.1953 53.2817C22.4728 53.2817 22.7389 53.4168 22.935 53.6573C23.1312 53.8978 23.2414 54.2239 23.2414 54.564Z" fill="#DBD524"/>
<path d="M260.165 3.84669C260.165 4.35184 260.084 4.85205 259.926 5.31875C259.769 5.78545 259.538 6.20951 259.246 6.56671C258.955 6.9239 258.609 7.20725 258.228 7.40056C257.847 7.59388 257.439 7.69337 257.027 7.69337C256.615 7.69337 256.207 7.59388 255.826 7.40056C255.445 7.20725 255.099 6.9239 254.808 6.56671C254.517 6.20951 254.285 5.78545 254.128 5.31875C253.97 4.85205 253.889 4.35184 253.889 3.84669C253.889 3.34153 253.97 2.84133 254.128 2.37462C254.285 1.90792 254.517 1.48387 254.808 1.12667C255.099 0.769471 255.445 0.486126 255.826 0.292812C256.207 0.0994974 256.615 0 257.027 0C257.439 0 257.847 0.0994974 258.228 0.292812C258.609 0.486126 258.955 0.769471 259.246 1.12667C259.538 1.48387 259.769 1.90792 259.926 2.37462C260.084 2.84133 260.165 3.34153 260.165 3.84669Z" fill="#DBD524"/>
<path d="M5.91757 37.6582C5.91757 38.6201 5.60584 39.5426 5.05096 40.2227C4.49608 40.9028 3.7435 41.2849 2.95878 41.2849C2.17407 41.2849 1.42149 40.9028 0.866608 40.2227C0.311728 39.5426 0 38.6201 0 37.6582C0 36.6964 0.311728 35.7739 0.866608 35.0938C1.42149 34.4137 2.17407 34.0316 2.95878 34.0316C3.7435 34.0316 4.49608 34.4137 5.05096 35.0938C5.60584 35.7739 5.91757 36.6964 5.91757 37.6582Z" fill="#DBD524"/>
<path d="M265 20.7527C265 21.7634 264.673 22.7327 264.09 23.4474C263.507 24.1621 262.716 24.5636 261.891 24.5636C261.067 24.5636 260.276 24.1621 259.693 23.4474C259.11 22.7327 258.782 21.7634 258.782 20.7527C258.782 19.742 259.11 18.7726 259.693 18.058C260.276 17.3433 261.067 16.9418 261.891 16.9418C262.716 16.9418 263.507 17.3433 264.09 18.058C264.673 18.7726 265 19.742 265 20.7527Z" fill="#DBD524"/>
<path d="M164.879 71.47C164.879 72.6803 164.487 73.841 163.789 74.6968C163.091 75.5527 162.144 76.0334 161.156 76.0334C160.169 76.0334 159.222 75.5527 158.524 74.6968C157.826 73.841 157.433 72.6803 157.433 71.47C157.433 70.2596 157.826 69.0989 158.524 68.2431C159.222 67.3873 160.169 66.9065 161.156 66.9065C162.144 66.9065 163.091 67.3873 163.789 68.2431C164.487 69.0989 164.879 70.2596 164.879 71.47Z" fill="#DBD524"/>
<path d="M251.303 3.84669C251.303 4.35184 251.222 4.85205 251.065 5.31875C250.907 5.78545 250.676 6.20951 250.384 6.56671C250.093 6.9239 249.747 7.20725 249.366 7.40056C248.985 7.59388 248.577 7.69337 248.165 7.69337C247.753 7.69337 247.345 7.59388 246.964 7.40056C246.583 7.20725 246.238 6.9239 245.946 6.56671C245.655 6.20951 245.424 5.78545 245.266 5.31875C245.108 4.85205 245.027 4.35184 245.027 3.84669C245.027 3.34153 245.108 2.84133 245.266 2.37462C245.424 1.90792 245.655 1.48387 245.946 1.12667C246.238 0.769471 246.583 0.486126 246.964 0.292812C247.345 0.0994974 247.753 0 248.165 0C248.577 0 248.985 0.0994974 249.366 0.292812C249.747 0.486126 250.093 0.769471 250.384 1.12667C250.676 1.48387 250.907 1.90792 251.065 2.37462C251.222 2.84133 251.303 3.34153 251.303 3.84669Z" fill="#DBD524"/>
</svg>
