<svg width="15" height="15" viewBox="0 0 15 15" fill="none" xmlns="http://www.w3.org/2000/svg">
<path d="M9.74534 1.89199C9.17522 1.27646 8.37893 0.9375 7.50003 0.9375C6.61643 0.9375 5.81751 1.27441 5.25003 1.88613C4.6764 2.50459 4.3969 3.34512 4.46253 4.25273C4.59261 6.04336 5.9552 7.5 7.50003 7.5C9.04485 7.5 10.4051 6.04365 10.5372 4.25332C10.6037 3.35391 10.3225 2.51514 9.74534 1.89199Z" fill="white"/>
<path d="M12.6562 14.0615H2.34367C2.20869 14.0633 2.07502 14.0349 1.95237 13.9785C1.82973 13.9221 1.7212 13.8391 1.63469 13.7354C1.44426 13.5078 1.3675 13.197 1.42434 12.8826C1.6716 11.5109 2.44328 10.3587 3.65617 9.5498C4.73371 8.83174 6.09865 8.43652 7.49992 8.43652C8.90119 8.43652 10.2661 8.83203 11.3437 9.5498C12.5566 10.3584 13.3282 11.5106 13.5755 12.8823C13.6323 13.1967 13.5556 13.5075 13.3652 13.7352C13.2787 13.8388 13.1702 13.9219 13.0475 13.9784C12.9249 14.0348 12.7912 14.0632 12.6562 14.0615Z" fill="white"/>
</svg>
