<svg width="397" height="147" viewBox="0 0 397 147" fill="none" xmlns="http://www.w3.org/2000/svg">
<path d="M2.46289 23.5L67.664 3.5L132.865 143.5L198.066 23.5L263.267 123.5L328.468 43.5L393.44 23.5" stroke="#FDC13E"/>
<path d="M2.46257 26.5C3.54647 26.5 4.42515 25.1569 4.42515 23.5C4.42515 21.8431 3.54647 20.5 2.46257 20.5C1.37867 20.5 0.5 21.8431 0.5 23.5C0.5 25.1569 1.37867 26.5 2.46257 26.5Z" fill="white" stroke="#24AC00"/>
<path d="M67.6637 6.5C68.7476 6.5 69.6263 5.15685 69.6263 3.5C69.6263 1.84315 68.7476 0.5 67.6637 0.5C66.5798 0.5 65.7012 1.84315 65.7012 3.5C65.7012 5.15685 66.5798 6.5 67.6637 6.5Z" fill="white" stroke="#24AC00"/>
<path d="M132.865 146.5C133.949 146.5 134.827 145.157 134.827 143.5C134.827 141.843 133.949 140.5 132.865 140.5C131.781 140.5 130.902 141.843 130.902 143.5C130.902 145.157 131.781 146.5 132.865 146.5Z" fill="white" stroke="#24AC00"/>
<path d="M198.066 26.5C199.15 26.5 200.029 25.1569 200.029 23.5C200.029 21.8431 199.15 20.5 198.066 20.5C196.982 20.5 196.104 21.8431 196.104 23.5C196.104 25.1569 196.982 26.5 198.066 26.5Z" fill="white" stroke="#24AC00"/>
<path d="M263.267 126.5C264.351 126.5 265.23 125.157 265.23 123.5C265.23 121.843 264.351 120.5 263.267 120.5C262.183 120.5 261.305 121.843 261.305 123.5C261.305 125.157 262.183 126.5 263.267 126.5Z" fill="white" stroke="#24AC00"/>
<path d="M328.468 46.5C329.552 46.5 330.431 45.1569 330.431 43.5C330.431 41.8431 329.552 40.5 328.468 40.5C327.385 40.5 326.506 41.8431 326.506 43.5C326.506 45.1569 327.385 46.5 328.468 46.5Z" fill="white" stroke="#24AC00"/>
<path d="M393.669 26.5C394.753 26.5 395.631 25.1569 395.631 23.5C395.631 21.8431 394.753 20.5 393.669 20.5C392.585 20.5 391.706 21.8431 391.706 23.5C391.706 25.1569 392.585 26.5 393.669 26.5Z" fill="white" stroke="#24AC00"/>
</svg>
