<svg width="24" height="24" viewBox="0 0 24 24" fill="none" xmlns="http://www.w3.org/2000/svg">
<path d="M20.6286 15.9984C20.5508 15.9047 20.4744 15.8109 20.3994 15.7204C19.3682 14.4731 18.7443 13.7203 18.7443 10.1892C18.7443 8.36107 18.3069 6.86107 17.4449 5.73607C16.8093 4.90498 15.95 4.27451 14.8175 3.80857C14.803 3.80047 14.79 3.78983 14.7791 3.77717C14.3718 2.4131 13.2571 1.49951 11.9999 1.49951C10.7427 1.49951 9.62849 2.4131 9.22114 3.77576C9.21027 3.78796 9.19744 3.79826 9.18317 3.80623C6.54036 4.8942 5.25599 6.98154 5.25599 10.1878C5.25599 13.7203 4.63302 14.4731 3.60083 15.719C3.52583 15.8095 3.44943 15.9014 3.37161 15.997C3.17061 16.2394 3.04326 16.5343 3.00464 16.8468C2.96601 17.1593 3.01772 17.4764 3.15365 17.7604C3.44286 18.3698 4.05927 18.7481 4.76286 18.7481H19.2421C19.9424 18.7481 20.5546 18.3703 20.8447 17.7637C20.9812 17.4796 21.0334 17.1623 20.9951 16.8494C20.9568 16.5365 20.8296 16.2412 20.6286 15.9984Z" fill="white"/>
<path d="M11.9999 22.5C12.6773 22.4995 13.3419 22.3156 13.9232 21.9679C14.5045 21.6202 14.9809 21.1217 15.3018 20.5252C15.3169 20.4966 15.3244 20.4646 15.3235 20.4322C15.3226 20.3999 15.3133 20.3684 15.2966 20.3407C15.2799 20.313 15.2563 20.2901 15.2282 20.2742C15.2 20.2583 15.1682 20.25 15.1358 20.25H8.86492C8.83254 20.2499 8.80068 20.2582 8.77245 20.274C8.74422 20.2899 8.72057 20.3128 8.70382 20.3405C8.68706 20.3682 8.67777 20.3997 8.67684 20.4321C8.67591 20.4645 8.68337 20.4965 8.69851 20.5252C9.01939 21.1216 9.49569 21.6201 10.0769 21.9678C10.6581 22.3155 11.3226 22.4994 11.9999 22.5Z" fill="white"/>
</svg>
