<svg width="38" height="40" viewBox="0 0 38 40" fill="none" xmlns="http://www.w3.org/2000/svg">
<path d="M24.9411 24.9072L22.1497 22.1158C22.8217 21.2211 23.1845 20.1321 23.1833 19.0132C23.1833 16.155 20.8579 13.8296 17.9998 13.8296C15.1416 13.8296 12.8162 16.155 12.8162 19.0132C12.8162 21.8713 15.1416 24.1967 17.9998 24.1967C19.1187 24.1979 20.2077 23.8351 21.1024 23.1631L23.8938 25.9545C24.0351 26.0808 24.2194 26.1482 24.4089 26.1429C24.5983 26.1376 24.7786 26.06 24.9126 25.926C25.0466 25.792 25.1242 25.6117 25.1295 25.4223C25.1348 25.2328 25.0674 25.0485 24.9411 24.9072ZM14.2972 19.0132C14.2972 18.2809 14.5144 17.565 14.9212 16.9561C15.328 16.3473 15.9063 15.8727 16.5829 15.5925C17.2594 15.3122 18.0039 15.2389 18.7221 15.3818C19.4403 15.5246 20.1 15.8773 20.6178 16.3951C21.1356 16.9129 21.4883 17.5726 21.6311 18.2908C21.774 19.009 21.7007 19.7535 21.4204 20.43C21.1402 21.1066 20.6656 21.6849 20.0568 22.0917C19.4479 22.4985 18.732 22.7157 17.9998 22.7157C17.0181 22.7145 16.0771 22.324 15.383 21.6299C14.6889 20.9358 14.2984 19.9948 14.2972 19.0132Z" fill="#2D3748"/>
</svg>
