<svg width="15" height="15" viewBox="0 0 15 15" fill="none" xmlns="http://www.w3.org/2000/svg">
<path d="M13.7566 3.53136C13.7228 3.46571 13.674 3.40896 13.6142 3.36574C13.5544 3.32251 13.4852 3.29403 13.4122 3.2826C13.3393 3.27118 13.2647 3.27715 13.1945 3.30001C13.1243 3.32287 13.0605 3.36199 13.0083 3.41417L11.2083 5.21534C11.12 5.30242 11.0009 5.35123 10.8768 5.35123C10.7528 5.35123 10.6337 5.30242 10.5453 5.21534L9.76721 4.43604C9.72367 4.39252 9.68913 4.34084 9.66557 4.28396C9.642 4.22708 9.62988 4.16612 9.62988 4.10455C9.62988 4.04298 9.642 3.98202 9.66557 3.92514C9.68913 3.86826 9.72367 3.81659 9.76721 3.77306L11.5596 1.98038C11.6133 1.92666 11.6532 1.86068 11.6758 1.78812C11.6983 1.71557 11.7029 1.63861 11.6891 1.56389C11.6754 1.48917 11.6436 1.41892 11.5967 1.35918C11.5497 1.29945 11.4889 1.25203 11.4196 1.22101C10.0657 0.615733 8.3759 0.931553 7.31037 1.98917C6.4051 2.888 6.13528 4.29249 6.57063 5.84259C6.5941 5.92525 6.59423 6.01279 6.57102 6.09553C6.5478 6.17826 6.50214 6.25296 6.43909 6.31134L1.56174 10.7659C1.37174 10.9365 1.21848 11.144 1.11131 11.3758C1.00414 11.6076 0.945322 11.8588 0.938429 12.1141C0.931537 12.3693 0.976719 12.6233 1.07122 12.8605C1.16572 13.0978 1.30756 13.3132 1.48808 13.4938C1.66861 13.6745 1.88403 13.8164 2.12122 13.911C2.3584 14.0056 2.61237 14.0509 2.86764 14.0441C3.1229 14.0373 3.37411 13.9786 3.60594 13.8716C3.83777 13.7645 4.04536 13.6113 4.21604 13.4214L8.71838 8.53321C8.77592 8.47097 8.84935 8.42561 8.93077 8.40202C9.01218 8.37843 9.09849 8.37749 9.18039 8.39932C9.6217 8.52024 10.0769 8.58298 10.5345 8.58595C11.513 8.58595 12.3717 8.26925 12.991 7.65899C14.138 6.52901 14.3129 4.61241 13.7566 3.53136ZM2.91497 13.1006C2.72202 13.1217 2.52729 13.0823 2.35765 12.988C2.18801 12.8937 2.05184 12.749 1.96791 12.574C1.88398 12.399 1.85645 12.2022 1.8891 12.0109C1.92175 11.8196 2.01299 11.6431 2.15021 11.5058C2.28743 11.3686 2.46388 11.2773 2.65519 11.2445C2.84651 11.2118 3.04327 11.2393 3.21831 11.3232C3.39335 11.407 3.53805 11.5431 3.63243 11.7128C3.72682 11.8824 3.76623 12.0771 3.74524 12.27C3.72214 12.4823 3.62725 12.6804 3.47627 12.8314C3.32529 12.9825 3.12726 13.0774 2.91497 13.1006Z" fill="white"/>
</svg>
