<svg width="396" height="126" viewBox="0 0 396 126" fill="none" xmlns="http://www.w3.org/2000/svg">
<path d="M2.46289 42.5L67.664 102.5L132.865 122.5L198.066 42.5L263.267 82.5L328.44 42.5L392.94 3" stroke="#17BC1C"/>
<path d="M2.46257 45.5C3.54647 45.5 4.42515 44.1569 4.42515 42.5C4.42515 40.8431 3.54647 39.5 2.46257 39.5C1.37867 39.5 0.5 40.8431 0.5 42.5C0.5 44.1569 1.37867 45.5 2.46257 45.5Z" fill="white" stroke="#17BC1C"/>
<path d="M67.6637 105.5C68.7476 105.5 69.6263 104.157 69.6263 102.5C69.6263 100.843 68.7476 99.5 67.6637 99.5C66.5798 99.5 65.7012 100.843 65.7012 102.5C65.7012 104.157 66.5798 105.5 67.6637 105.5Z" fill="white" stroke="#17BC1C"/>
<path d="M132.865 125.5C133.949 125.5 134.827 124.157 134.827 122.5C134.827 120.843 133.949 119.5 132.865 119.5C131.781 119.5 130.902 120.843 130.902 122.5C130.902 124.157 131.781 125.5 132.865 125.5Z" fill="white" stroke="#17BC1C"/>
<path d="M198.066 45.5C199.15 45.5 200.029 44.1569 200.029 42.5C200.029 40.8431 199.15 39.5 198.066 39.5C196.982 39.5 196.104 40.8431 196.104 42.5C196.104 44.1569 196.982 45.5 198.066 45.5Z" fill="white" stroke="#17BC1C"/>
<path d="M263.267 85.5C264.351 85.5 265.23 84.1569 265.23 82.5C265.23 80.8431 264.351 79.5 263.267 79.5C262.183 79.5 261.305 80.8431 261.305 82.5C261.305 84.1569 262.183 85.5 263.267 85.5Z" fill="white" stroke="#17BC1C"/>
<path d="M328.468 45.5C329.552 45.5 330.431 44.1569 330.431 42.5C330.431 40.8431 329.552 39.5 328.468 39.5C327.385 39.5 326.506 40.8431 326.506 42.5C326.506 44.1569 327.385 45.5 328.468 45.5Z" fill="white" stroke="#17BC1C"/>
<path d="M392.903 6.5C393.987 6.5 394.866 5.15685 394.866 3.5C394.866 1.84315 393.987 0.5 392.903 0.5C391.819 0.5 390.94 1.84315 390.94 3.5C390.94 5.15685 391.819 6.5 392.903 6.5Z" fill="white" stroke="#17BC1C"/>
</svg>
