<svg width="51" height="26" viewBox="0 0 51 26" fill="none" xmlns="http://www.w3.org/2000/svg">
<rect x="0.0839695" y="0.0839695" width="50.8319" height="25.332" fill="white" stroke="black" stroke-width="0.167939"/>
<path d="M38.2496 7.22478L9.34965 20.8247" stroke="#24AC00" stroke-width="0.839695"/>
<path d="M38.2176 9.34974C39.139 9.34974 39.8858 8.20807 39.8858 6.79974C39.8858 5.39142 39.139 4.24975 38.2176 4.24975C37.2963 4.24975 36.5495 5.39142 36.5495 6.79974C36.5495 8.20807 37.2963 9.34974 38.2176 9.34974Z" fill="white" stroke="#17BC1C" stroke-width="0.839695"/>
<path d="M9.31853 22.9501C10.2398 22.9501 10.9867 21.8085 10.9867 20.4001C10.9867 18.9918 10.2398 17.8501 9.31853 17.8501C8.39722 17.8501 7.65035 18.9918 7.65035 20.4001C7.65035 21.8085 8.39722 22.9501 9.31853 22.9501Z" fill="white" stroke="#17BC1C" stroke-width="0.839695"/>
</svg>
